<svg viewBox="0 0 400 200" xmlns="http://www.w3.org/2000/svg">
  <defs>
    <linearGradient id="serviceBg" x1="0%" y1="0%" x2="100%" y2="100%">
      <stop offset="0%" style="stop-color:#0f0f1a"/>
      <stop offset="50%" style="stop-color:#1a1040"/>
      <stop offset="100%" style="stop-color:#0f0f1a"/>
    </linearGradient>
    <radialGradient id="headset" cx="50%" cy="50%" r="50%">
      <stop offset="0%" style="stop-color:#ffffff;stop-opacity:0.9"/>
      <stop offset="100%" style="stop-color:#ffffff;stop-opacity:0.7"/>
    </radialGradient>
  </defs>
  
  <!-- Background -->
  <rect width="400" height="200" fill="url(#serviceBg)"/>
  
  <!-- Headset -->
  <circle cx="200" cy="100" r="40" fill="url(#headset)"/>
  <rect x="180" y="80" width="40" height="25" rx="12" fill="#6C63FF"/>
  <circle cx="170" cy="92" r="15" fill="rgba(108,99,255,0.8)"/>
  <circle cx="230" cy="92" r="15" fill="rgba(108,99,255,0.8)"/>
  <path d="M185 120 Q200 130 215 120" stroke="#6C63FF" stroke-width="3" fill="none" stroke-linecap="round"/>
  
  <!-- Sound waves -->
  <path d="M120 80 Q130 100 120 120" stroke="rgba(108,99,255,0.4)" stroke-width="2" fill="none"/>
  <path d="M110 70 Q125 100 110 130" stroke="rgba(108,99,255,0.3)" stroke-width="2" fill="none"/>
  <path d="M280 80 Q270 100 280 120" stroke="rgba(108,99,255,0.4)" stroke-width="2" fill="none"/>
  <path d="M290 70 Q275 100 290 130" stroke="rgba(108,99,255,0.3)" stroke-width="2" fill="none"/>
  
  <!-- Support icons -->
  <circle cx="80" cy="50" r="8" fill="rgba(34,197,94,0.8)"/>
  <text x="80" y="55" font-family="Arial" font-size="10" font-weight="900" fill="white" text-anchor="middle">24</text>
  
  <circle cx="320" cy="50" r="8" fill="rgba(255,101,132,0.8)"/>
  <text x="320" y="55" font-family="Arial" font-size="10" font-weight="900" fill="white" text-anchor="middle">7</text>
  
  <circle cx="80" cy="150" r="8" fill="rgba(255,165,0,0.8)"/>
  <text x="80" y="155" font-family="Arial" font-size="8" font-weight="900" fill="white" text-anchor="middle">&lt;2</text>
  
  <circle cx="320" cy="150" r="8" fill="rgba(59,130,246,0.8)"/>
  <text x="320" y="155" font-family="Arial" font-size="6" font-weight="900" fill="white" text-anchor="middle">99%</text>
</svg>